# xmcd CD database file
#
# Track frame offsets:
#	150
#	21214
#	57796
#	78056
#	94352
#	115553
#	143328
#
# Disc length: 2192 seconds
#
# Revision: 0
# Processed by: cddbd v1.5.2PL0 Copyright (c) Steve Scherf et al.
# Submitted via: CDex 1.70beta2
#
DISCID=47088e07
DTITLE=Barry Miles - White Heat
DYEAR=1971
DGENRE=Jazz
TTITLE0=Little Heart of Pieces
TTITLE1=White Heat
TTITLE2=Woodstock
TTITLE3=Descent
TTITLE4=Tangent
TTITLE5=Foot Mother
TTITLE6=Sound Song
EXTD=YEAR: 1971
EXTT0=
EXTT1=
EXTT2=
EXTT3=
EXTT4=
EXTT5=
EXTT6=
PLAYORDER=
